<svg xmlns="http://www.w3.org/2000/svg" width="150" height="150" fill="none" viewBox="0 0 150 150"><circle cx="75" cy="75" r="74.5" fill="#fff" stroke="#06f"/><mask id="a" fill="#fff"><path d="M104.783 76.964c-.45-4.925-1.192-5.884-1.472-6.245-.644-.833-1.674-1.378-2.764-1.95a.436.436 0 0 1-.114-.692c.202-.2.357-.44.455-.703s.136-.545.112-.824a1.97 1.97 0 0 0-.662-1.289 2.07 2.07 0 0 0-1.382-.511h-1.95a2 2 0 0 0-.25.016 1 1 0 0 0-.177-.057c-1.155-2.38-2.737-5.64-6.015-7.23C85.702 55.122 76.746 55 74.996 55s-10.707.122-15.562 2.475c-3.278 1.59-4.86 4.85-6.015 7.23l-.01.02a1 1 0 0 0-.169.04 2 2 0 0 0-.25-.015h-1.954a2.06 2.06 0 0 0-1.382.511 1.97 1.97 0 0 0-.662 1.29c-.022.278.018.558.117.82s.255.5.457.699a.44.44 0 0 1 .12.374.43.43 0 0 1-.234.318c-1.09.575-2.125 1.12-2.764 1.95-.28.366-1.02 1.32-1.471 6.245-.25 2.771-.288 5.64-.092 7.488.411 3.84 1.183 6.16 1.215 6.256.119.35.337.66.629.895s.646.384 1.022.43v.024c0 .517.21 1.013.586 1.379.375.366.883.571 1.414.571h7.001c.53 0 1.04-.205 1.414-.571.376-.366.586-.862.586-1.379 1.077 0 1.826-.188 2.62-.388a20.3 20.3 0 0 1 3.5-.598c3.814-.355 7.607-.476 9.884-.476 2.23 0 6.19.121 10.011.476 1.188.097 2.364.298 3.515.6.76.191 1.481.367 2.48.385 0 .517.21 1.013.586 1.379.375.365.884.57 1.414.57h7.001c.531 0 1.04-.205 1.415-.57.375-.366.586-.862.586-1.38v-.014a2.03 2.03 0 0 0 1.024-.428c.293-.235.512-.546.631-.897.032-.096.804-2.416 1.215-6.255.196-1.85.161-4.713-.091-7.49M57.035 66.372c1-2.072 2.144-4.417 4.18-5.405 2.943-1.428 9.043-2.072 13.78-2.072 4.74 0 10.839.639 13.782 2.072 2.036.988 3.175 3.335 4.18 5.405l.125.265a.95.95 0 0 1-.066.949 1 1 0 0 1-.373.331c-.15.077-.32.116-.49.111-4.155-.11-12.907-.46-17.157-.46s-13.002.36-17.163.469c-.17.004-.34-.034-.49-.112a1 1 0 0 1-.374-.33.96.96 0 0 1-.066-.95q.067-.135.132-.273m1.49 9.705c-2.15.252-4.314.377-6.48.373-1.325 0-2.692-.366-2.946-1.516-.173-.774-.154-1.21-.06-1.647.078-.371.203-.642.828-.737 1.625-.244 2.534.062 5.195.826 1.764.506 3.036 1.18 3.762 1.714.363.263.17.95-.298.987m27.678 9.994c-1.646.183-4.936.116-11.17.116-6.233 0-9.522.067-11.168-.116-1.697-.184-3.861-1.75-2.384-3.143.984-.92 3.28-1.607 6.336-1.993s4.35-.585 7.204-.585 4.015.122 7.203.586c3.188.465 5.597 1.16 6.336 1.993 1.348 1.492-.661 2.948-2.358 3.15zm14.689-11.138c-.25 1.155-1.625 1.516-2.945 1.516a58 58 0 0 1-6.606-.373c-.383-.035-.56-.69-.173-.987.714-.548 2-1.208 3.762-1.714 2.66-.764 4.194-1.07 5.512-.815.321.062.491.398.511.61a4.8 4.8 0 0 1-.061 1.764z"/></mask><path fill="#06f" d="M104.783 76.964c-.45-4.925-1.192-5.884-1.472-6.245-.644-.833-1.674-1.378-2.764-1.95a.436.436 0 0 1-.114-.692c.202-.2.357-.44.455-.703s.136-.545.112-.824a1.97 1.97 0 0 0-.662-1.289 2.07 2.07 0 0 0-1.382-.511h-1.95a2 2 0 0 0-.25.016 1 1 0 0 0-.177-.057c-1.155-2.38-2.737-5.64-6.015-7.23C85.702 55.122 76.746 55 74.996 55s-10.707.122-15.562 2.475c-3.278 1.59-4.86 4.85-6.015 7.23l-.01.02a1 1 0 0 0-.169.04 2 2 0 0 0-.25-.015h-1.954a2.06 2.06 0 0 0-1.382.511 1.97 1.97 0 0 0-.662 1.29c-.022.278.018.558.117.82s.255.5.457.699a.44.44 0 0 1 .12.374.43.43 0 0 1-.234.318c-1.09.575-2.125 1.12-2.764 1.95-.28.366-1.02 1.32-1.471 6.245-.25 2.771-.288 5.64-.092 7.488.411 3.84 1.183 6.16 1.215 6.256.119.35.337.66.629.895s.646.384 1.022.43v.024c0 .517.21 1.013.586 1.379.375.366.883.571 1.414.571h7.001c.53 0 1.04-.205 1.414-.571.376-.366.586-.862.586-1.379 1.077 0 1.826-.188 2.62-.388a20.3 20.3 0 0 1 3.5-.598c3.814-.355 7.607-.476 9.884-.476 2.23 0 6.19.121 10.011.476 1.188.097 2.364.298 3.515.6.76.191 1.481.367 2.48.385 0 .517.21 1.013.586 1.379.375.365.884.57 1.414.57h7.001c.531 0 1.04-.205 1.415-.57.375-.366.586-.862.586-1.38v-.014a2.03 2.03 0 0 0 1.024-.428c.293-.235.512-.546.631-.897.032-.096.804-2.416 1.215-6.255.196-1.85.161-4.713-.091-7.49M57.035 66.372c1-2.072 2.144-4.417 4.18-5.405 2.943-1.428 9.043-2.072 13.78-2.072 4.74 0 10.839.639 13.782 2.072 2.036.988 3.175 3.335 4.18 5.405l.125.265a.95.95 0 0 1-.066.949 1 1 0 0 1-.373.331c-.15.077-.32.116-.49.111-4.155-.11-12.907-.46-17.157-.46s-13.002.36-17.163.469c-.17.004-.34-.034-.49-.112a1 1 0 0 1-.374-.33.96.96 0 0 1-.066-.95q.067-.135.132-.273m1.49 9.705c-2.15.252-4.314.377-6.48.373-1.325 0-2.692-.366-2.946-1.516-.173-.774-.154-1.21-.06-1.647.078-.371.203-.642.828-.737 1.625-.244 2.534.062 5.195.826 1.764.506 3.036 1.18 3.762 1.714.363.263.17.95-.298.987m27.678 9.994c-1.646.183-4.936.116-11.17.116-6.233 0-9.522.067-11.168-.116-1.697-.184-3.861-1.75-2.384-3.143.984-.92 3.28-1.607 6.336-1.993s4.35-.585 7.204-.585 4.015.122 7.203.586c3.188.465 5.597 1.16 6.336 1.993 1.348 1.492-.661 2.948-2.358 3.15zm14.689-11.138c-.25 1.155-1.625 1.516-2.945 1.516a58 58 0 0 1-6.606-.373c-.383-.035-.56-.69-.173-.987.714-.548 2-1.208 3.762-1.714 2.66-.764 4.194-1.07 5.512-.815.321.062.491.398.511.61a4.8 4.8 0 0 1-.061 1.764z"/><path fill="#06f" d="m104.783 76.964.996-.09zm-1.472-6.245-.791.612.001.002zm-2.764-1.95.464-.885-.006-.003zm-.114-.692-.703-.711-.008.008zM101 66.55l.996-.087-.001-.007zm-2.044-1.8v1h.009zm-1.95 0v-1H97zm-.25.016-.39.92.245.105.265-.032zm-.177-.057-.9.436.209.43.465.108zm-6.015-7.23.437-.9zm-31.13-.004-.437-.9zm-6.015 7.23.89.456.005-.01.005-.01zm-.01.02.136.99.516-.07.238-.464zm-.169.04-.12.994.235.028.224-.08zm-.25-.015.006-1h-.006zm-1.954 0-.009 1h.01zm-2.044 1.8-.995-.094-.001.007v.008zm.574 1.52.711-.703-.005-.006-.006-.005zm-.114.692-.458-.889-.009.005zm-2.764 1.95-.793-.61v.002zm-1.471 6.245-.996-.091v.001zm-.092 7.488-.994.106zm1.215 6.256-.947.32zm1.65 1.325h1v-.885l-.878-.108zm0 .024h-1zm11.002 0v-1h-1v1zm2.62-.388.244.97.01-.002zm3.5-.598.082.997.01-.001zm19.895 0-.092.996h.01zm3.515.6-.255.968.012.003zm2.48.385h1v-.982l-.982-.018zm11.002-.015-.12-.993-.88.106v.887zm1.655-1.325.947.32zm1.215-6.255.994.106zm-47.84-18.082-.9-.435-.006.012-.005.012zm4.181-5.405.437.9zm27.562 0-.438.9h.001zm4.18 5.405.904-.427-.004-.01zm.125.265-.904.427.005.01zm-.93 1.391-.026 1zm-34.319.009.026 1zm-.93-1.392.9.437zm1.623 9.432-.078-.997-.02.002-.019.002zm-6.481.373.002-1h-.002zm-2.946-1.516.977-.215v-.004zm-.06-1.647.977.21v-.002zm.828-.737-.148-.989h-.002zm5.195.826-.276.962zm3.762 1.714-.593.805.006.005zm27.379 10.98h1v-1.116l-1.11.123zm-22.338 0 .11-.993h-.002zm-2.384-3.142-.682-.731-.004.003zm27.08 0-.749.665.006.006zm-2.359 3.15h-1v1.126l1.118-.133zm14.69-11.145h1l-1.977-.212zm-2.945 1.516v-1zm-6.606-.373.113-.994-.01-.001h-.011zm-.173-.987-.608-.794zm3.762-1.714.276.961zm5.512-.815.19-.982zm.511.61-.995.094.002.027.005.027zm-.061 1.764h-1l1.976.216zm4.887 1.94c-.457-4.994-1.223-6.182-1.678-6.768l-1.58 1.227c.106.136.822.866 1.266 5.722zm-1.676-6.766c-.803-1.04-2.052-1.679-3.092-2.224l-.928 1.771c1.14.598 1.952 1.048 2.437 1.676zm-3.098-2.227a.54.54 0 0 1 .192.164l-1.611 1.184c.133.181.306.328.503.43zm.192.164q.08.107.103.244l-1.974.324c.037.224.127.435.26.616zm.103.244a.6.6 0 0 1-.02.267l-1.904-.612c-.07.216-.087.445-.05.67zm-.02.267a.6.6 0 0 1-.135.224l-1.423-1.406c-.157.16-.276.354-.346.57zm-.144.232c.305-.3.541-.664.69-1.066l-1.875-.696a.9.9 0 0 1-.22.34zm.69-1.066c.149-.402.207-.831.17-1.258l-1.993.173a.9.9 0 0 1-.052.39zm.169-1.266a2.97 2.97 0 0 0-.996-1.945l-1.322 1.5c.19.169.305.395.327.634zm-.996-1.945a3.07 3.07 0 0 0-2.052-.761l.018 2c.266-.002.52.093.712.262zm-2.043-.761h-1.95v2h1.95zm-1.956 0q-.183 0-.365.023l.24 1.986q.068-.009.136-.009zm.145.095a2 2 0 0 0-.34-.11l-.453 1.948q.008 0 .014.004zm.334.427c-1.134-2.336-2.844-5.93-6.478-7.693l-.873 1.8c2.921 1.417 4.375 4.341 5.551 6.766zM91 56.579c-2.597-1.258-6.198-1.89-9.282-2.218A67 67 0 0 0 74.996 54v2c.857 0 3.495.03 6.512.35 3.047.323 6.354.93 8.62 2.029zM74.996 54c-.894 0-3.609.03-6.722.36-3.083.327-6.684.959-9.277 2.215l.873 1.8c2.262-1.096 5.568-1.703 8.615-2.026a66 66 0 0 1 6.51-.349zm-15.999 2.576c-3.635 1.763-5.344 5.357-6.478 7.692l1.8.873c1.176-2.424 2.63-5.349 5.551-6.766zm-6.468 7.673-.01.019 1.78.913.01-.02zm.744-.515a2 2 0 0 0-.372.09l.678 1.883-.034.008zm.088.04a3 3 0 0 0-.365-.024l-.012 2q.068 0 .136.009zm-.37-.024h-1.955v2h1.954zm-1.946 0a3.07 3.07 0 0 0-2.052.76l1.322 1.502c.191-.169.445-.264.712-.262zm-2.052.76a2.97 2.97 0 0 0-.997 1.946l1.992.189a.97.97 0 0 1 .327-.633zm-.998 1.96c-.034.427.027.855.178 1.254l1.871-.706a.9.9 0 0 1-.055-.389zm.178 1.254c.151.4.388.761.693 1.06l1.4-1.428a.9.9 0 0 1-.222-.338zm.681 1.049a.6.6 0 0 1-.135-.224l1.904-.612a1.44 1.44 0 0 0-.346-.57zm-.135-.224a.6.6 0 0 1-.02-.268l1.974.325c.037-.224.02-.453-.05-.67zm-.02-.268a.6.6 0 0 1 .103-.243l1.611 1.184c.134-.181.223-.392.26-.616zm.103-.243a.55.55 0 0 1 .192-.165l.916 1.778c.198-.102.37-.248.503-.43zm.183-.16c-1.034.546-2.291 1.187-3.09 2.224l1.585 1.22c.48-.623 1.293-1.07 2.439-1.675zm-3.09 2.226c-.45.587-1.217 1.765-1.674 6.762l1.991.182c.445-4.853 1.16-5.583 1.27-5.728zm-1.675 6.763c-.253 2.807-.295 5.747-.09 7.684l1.99-.212c-.187-1.758-.154-4.556.092-7.292zm-.09 7.685c.421 3.926 1.212 6.319 1.263 6.469l1.895-.64c-.014-.042-.766-2.29-1.168-6.043zm1.263 6.469c.18.534.51 1.003.95 1.355l1.252-1.56a.95.95 0 0 1-.307-.435zm.95 1.355c.438.352.968.574 1.526.642l.243-1.985a1.03 1.03 0 0 1-.517-.217zm.648-.35v.024h2v-.024zm0 .024c0 .79.322 1.544.888 2.095l1.396-1.432a.93.93 0 0 1-.284-.663zm.888 2.095c.564.55 1.324.855 2.112.855v-2c-.273 0-.53-.106-.716-.287zM49.99 95h7.001v-2H49.99zm7.001 0c.788 0 1.548-.305 2.112-.855l-1.396-1.432a1.03 1.03 0 0 1-.716.287zm2.112-.855a2.93 2.93 0 0 0 .888-2.095h-2a.93.93 0 0 1-.284.663zm-.112-1.095c1.21 0 2.06-.216 2.864-.418l-.489-1.94c-.785.198-1.43.358-2.375.358zm2.873-.42a19.3 19.3 0 0 1 3.329-.57l-.164-1.993c-1.24.102-2.47.312-3.673.628zm3.34-.57c3.78-.352 7.542-.472 9.79-.472v-2c-2.303 0-6.127.123-9.976.48zm9.79-.472c2.205 0 6.134.12 9.92.472l.185-1.992c-3.856-.358-7.848-.48-10.104-.48zm9.93.473c1.13.092 2.248.283 3.342.571l.509-1.934a21.4 21.4 0 0 0-3.687-.63zm3.354.574c.77.193 1.585.393 2.705.414l.036-2c-.878-.016-1.506-.167-2.256-.354zm1.723-.586c0 .79.322 1.543.888 2.095l1.396-1.432a.93.93 0 0 1-.284-.663zm.888 2.095c.564.55 1.325.855 2.112.855v-2c-.273 0-.53-.106-.716-.287zm2.112.855h7.001v-2h-7zm7.001 0a3.03 3.03 0 0 0 2.113-.855l-1.396-1.432a1.03 1.03 0 0 1-.717.287zm2.113-.855a2.93 2.93 0 0 0 .888-2.095h-2a.93.93 0 0 1-.284.663zm.888-2.095v-.015h-2v.015zm-.881.978a3.03 3.03 0 0 0 1.53-.64l-1.249-1.562a1.03 1.03 0 0 1-.52.216zm1.53-.64c.441-.353.772-.823.953-1.357l-1.894-.641a.96.96 0 0 1-.308.436zm.953-1.358c.051-.15.842-2.543 1.262-6.469l-1.988-.213c-.402 3.752-1.154 6-1.169 6.043zm1.262-6.47c.206-1.938.166-4.873-.089-7.685l-1.992.18c.249 2.74.279 5.534.093 7.294zM57.935 66.807c.505-1.047 1.01-2.082 1.625-2.977.613-.892 1.288-1.573 2.092-1.963l-.873-1.8c-1.233.599-2.149 1.584-2.867 2.63-.716 1.042-1.283 2.215-1.778 3.24zm3.717-4.94c1.323-.643 3.454-1.145 5.916-1.48 2.435-.333 5.1-.492 7.428-.492v-2c-2.41 0-5.164.163-7.7.51-2.508.342-4.898.876-6.518 1.662zm13.344-1.972c2.329 0 4.993.157 7.428.49 2.462.335 4.592.837 5.915 1.481l.876-1.798c-1.62-.79-4.012-1.323-6.52-1.665a59 59 0 0 0-7.7-.508zm13.344 1.972c.803.39 1.477 1.07 2.09 1.963.614.896 1.119 1.931 1.628 2.979l1.799-.873c-.497-1.023-1.064-2.197-1.779-3.238-.718-1.046-1.631-2.032-2.865-2.63zm3.713 4.932.125.265 1.808-.855-.125-.264zm.13.274-.005-.023 1.996.139a1.95 1.95 0 0 0-.192-.99zm-.005-.023q.002-.014.007-.02l1.663 1.112a1.97 1.97 0 0 0 .326-.953zm.007-.02.003-.003.911 1.78a2 2 0 0 0 .749-.665zm.003-.003-.01.002-.051 2c.337.008.671-.068.972-.222zm-.01.002c-4.122-.11-12.915-.461-17.182-.461v2c4.234 0 12.943.35 17.13.46zm-17.182-.461c-4.267 0-13.062.36-17.189.47l.053 1.999c4.194-.111 12.901-.47 17.136-.47zm-17.188.47-.01-.003-.912 1.78c.301.155.636.23.973.222zm-.01-.003.003.004-1.663 1.111c.189.283.447.511.748.666zm.003.004a.04.04 0 0 1 .006.02l-1.995.139c.024.341.137.669.326.952zm.006.02-.004.023-1.8-.874a1.96 1.96 0 0 0-.191.99zm-.004.023c.034-.07.094-.19.143-.298l-1.823-.823c-.034.074-.066.137-.12.248zm.606 8.002a54 54 0 0 1-6.362.366l-.004 2c2.206.004 4.41-.123 6.6-.38zm-6.364.366c-.59 0-1.11-.084-1.474-.243-.344-.15-.457-.317-.495-.488l-1.953.43c.216.98.913 1.57 1.648 1.89.713.312 1.538.411 2.274.411zm-1.97-.735c-.147-.654-.118-.942-.059-1.218l-1.956-.42c-.128.6-.137 1.182.064 2.076zm-.058-1.22.016-.07.005-.016-.018.034a.4.4 0 0 1-.131.125l.028-.01a1 1 0 0 1 .1-.02l-.3-1.977c-.432.066-.865.218-1.195.567-.32.337-.416.733-.462.952zm-.002.044c1.368-.205 2.052.017 4.77.799l.553-1.923c-2.602-.747-3.736-1.136-5.62-.854zm4.771.799c1.669.478 2.83 1.105 3.445 1.557l1.185-1.61c-.835-.615-2.22-1.337-4.079-1.87zm3.451 1.562a.49.49 0 0 1-.21-.513.47.47 0 0 1 .421-.307l.156 1.994c.76-.06 1.2-.637 1.342-1.124.14-.478.092-1.216-.536-1.67zm27.855 9.177c-1.572.175-4.76.11-11.059.11v2c6.169 0 9.561.069 11.28-.122zm-11.059.11c-6.298 0-9.485.065-11.057-.11l-.221 1.988c1.718.19 5.11.122 11.278.122zm-11.06-.11c-.646-.07-1.385-.419-1.771-.819-.187-.193-.21-.312-.212-.34 0-.008-.001-.023.013-.054a.7.7 0 0 1 .165-.209L60.795 82.2c-.536.506-.845 1.14-.801 1.843.041.665.387 1.21.77 1.605.75.777 1.942 1.303 2.994 1.417zm-1.81-1.418c.327-.306.975-.652 2.006-.972 1.006-.313 2.283-.571 3.774-.76l-.251-1.984c-1.566.198-2.965.476-4.116.834-1.127.35-2.12.806-2.777 1.42zm5.78-1.732c3.062-.387 4.297-.577 7.078-.577v-2c-2.925 0-4.278.207-7.33.593zm7.078-.577c2.79 0 3.902.116 7.06.576l.288-1.98c-3.219-.468-4.432-.596-7.348-.596zm7.06.576c1.564.228 2.91.509 3.936.824q.77.239 1.243.476c.327.163.488.294.552.367l1.496-1.328c-.305-.344-.722-.612-1.154-.828-.444-.222-.97-.42-1.55-.598-1.159-.357-2.613-.656-4.235-.892zm5.737 1.673c.193.213.186.325.184.35-.004.051-.036.172-.205.35-.356.376-1.05.708-1.712.786l.235 1.986c1.035-.123 2.193-.62 2.929-1.395.377-.398.7-.933.747-1.582.05-.673-.212-1.302-.694-1.835zm-.615 2.48v-.008h-2v.007zM99.915 74.72c-.037.17-.148.336-.493.486-.365.159-.887.242-1.475.242v2c.732 0 1.558-.097 2.272-.408.736-.32 1.437-.912 1.651-1.897zm-1.969.728c-2.17 0-4.337-.122-6.492-.367l-.226 1.988c2.23.253 4.474.38 6.719.379zm-6.513-.369a.63.63 0 0 1 .406.197.4.4 0 0 1 .105.195.42.42 0 0 1-.167.41l-1.218-1.587c-.565.434-.677 1.1-.571 1.594.095.447.47 1.11 1.26 1.183zm.344.802c.587-.45 1.75-1.064 3.429-1.546l-.552-1.922c-1.844.53-3.254 1.237-4.094 1.881zm3.43-1.546c2.693-.773 3.999-.997 5.045-.794l.38-1.964c-1.589-.307-3.35.081-5.978.836zm5.045-.794a.4.4 0 0 1-.253-.149.2.2 0 0 1-.023-.042.3.3 0 0 1-.018-.087l1.991-.19a1.8 1.8 0 0 0-.327-.85 1.6 1.6 0 0 0-.99-.646zm-.287-.224c.069.465.053.94-.05 1.4l1.953.432c.156-.7.181-1.42.074-2.13zm1.927 1.616v-.001h-2z" mask="url(#a)"/></svg>